<?xml version="1.0" encoding="UTF-8" standalone="no"?>
<!-- Created with Inkscape (http://www.inkscape.org/) -->
<svg
   xmlns:dc="http://purl.org/dc/elements/1.1/"
   xmlns:cc="http://web.resource.org/cc/"
   xmlns:rdf="http://www.w3.org/1999/02/22-rdf-syntax-ns#"
   xmlns:svg="http://www.w3.org/2000/svg"
   xmlns="http://www.w3.org/2000/svg"
   xmlns:sodipodi="http://sodipodi.sourceforge.net/DTD/sodipodi-0.dtd"
   xmlns:inkscape="http://www.inkscape.org/namespaces/inkscape"
   id="svg2"
   sodipodi:version="0.32"
   inkscape:version="0.45.1"
   width="666"
   height="688"
   version="1.0"
   sodipodi:docbase="C:\Documents and Settings\Owner\My Documents\Pictures\Temporary for Wikipedia"
   sodipodi:docname="Ouroboros-Zanaq.svg"
   inkscape:output_extension="org.inkscape.output.svg.inkscape">
  <metadata
     id="metadata7">
    <rdf:RDF>
      <cc:Work
         rdf:about="">
        <dc:format>image/svg+xml</dc:format>
        <dc:type
           rdf:resource="http://purl.org/dc/dcmitype/StillImage" />
      </cc:Work>
    </rdf:RDF>
  </metadata>
  <defs
     id="defs5" />
  <sodipodi:namedview
     inkscape:window-height="790"
     inkscape:window-width="1146"
     inkscape:pageshadow="2"
     inkscape:pageopacity="0.0"
     guidetolerance="10.0"
     gridtolerance="10.0"
     objecttolerance="10.0"
     borderopacity="1.0"
     bordercolor="#666666"
     pagecolor="#ffffff"
     id="base"
     inkscape:zoom="1.0257069"
     inkscape:cx="73.652027"
     inkscape:cy="609.24343"
     inkscape:window-x="23"
     inkscape:window-y="29"
     inkscape:current-layer="svg2" />
  <path
     style="fill:#000000"
     d="M 297,661.91177 C 286.06188,660.86209 250.96286,655.31088 250.96286,654.63468 C 250.96286,654.3492 264.54916,656.00844 268.88702,656.3702 C 277.61234,657.09786 295.70444,656.08867 309.5,653.42431 C 340.11591,647.51141 355.57429,636.99006 355.57429,636.99006 C 355.57429,636.99006 349.42978,634.71081 343.77728,633.0096 C 313.38202,623.86162 284.93291,613.31085 271.5,606.20449 L 267.5,604.08839 L 277.25658,604.0442 C 295.0457,603.96361 316.04459,599.62707 330.59698,593.0287 C 338.22688,589.56914 349,583.18123 349,582.11665 C 349,581.71045 346.73817,580.79841 343.9737,580.0899 C 337.03439,578.31141 324.46,572.00244 305,560.53559 C 292.9142,553.414 289.49072,550.70153 289.49072,550.70153 C 299.81872,552.39225 315.15178,553.98448 328.80849,553.9918 C 335.60453,553.99544 343.05655,553.34806 343.05655,553.34806 C 343.05655,553.34806 350.61818,555.63117 355.80849,556.93343 C 376.15311,562.03796 389.07094,564.15685 404,564.83822 L 418.5,565.5 L 413.43196,570.50784 C 410.64453,573.26216 404.34453,578.19708 399.43196,581.47433 C 390.36655,587.52199 361.24589,602.82147 350.75,607.05097 C 347.5875,608.32535 343.96592,610.05224 343.96592,610.05224 C 343.96592,610.05224 355.0302,613.65952 365.5,615.41649 C 387.89695,619.17501 413.24701,619.56571 433.4611,616.46392 C 438.3897,615.70764 442.55827,615.22494 442.72459,615.39126 C 442.8909,615.55757 439.49207,618.30533 435.17163,621.4974 C 425.88887,628.35576 409.80325,637.08918 394.5,643.57938 C 388.45,646.14522 381.475,649.1531 379,650.26355 C 374.40044,652.32723 360.78087,657.59898 351.09345,661.06539 C 348.73112,661.9107 345.20945,662.87131 345.20945,662.87131 C 345.20945,662.87131 334.37305,662.92327 325.59345,662.86374 C 314.54205,662.78879 301.675,662.36041 297,661.91177 z "
     id="path2209"
     sodipodi:nodetypes="cssssscccsssscscscccsssssssssscsc" />
  <path
     style="fill:#000000"
     d="M 407.81053,651.5402 C 428.85361,642.87231 452.64359,626.79324 466.38437,611.95155 C 472.45939,605.3898 477.52713,597.50441 477.52713,597.50441 C 477.52713,597.50441 473.66945,597.48646 470.35311,598.02054 C 448.42417,601.55209 422.34226,604.18861 404.5,604.67737 L 384.5,605.22524 L 395.06427,599.80086 C 415.32429,589.39806 433.75578,574.22469 443.82424,559.66015 C 450.83237,549.52253 451.05206,548.82561 446.84012,550.09288 C 441.85188,551.59372 416.70282,551.09706 398,549.12835 L 381.5,547.39152 L 390.48642,544.5915 C 402.20194,540.94115 412.07717,536.98836 422.80942,531.6535 C 427.49504,529.32434 432.96398,526.06174 432.96398,526.06174 C 432.96398,526.06174 439.37615,525.39242 444.12328,524.59993 C 462.28064,521.67846 479.90118,516.28641 496.90357,509.33408 C 500.97554,507.48594 504.47806,506.14473 504.68696,506.35363 C 505.42209,507.08876 501.74204,516.57282 498.22777,523 C 491.34533,535.58713 477.32469,554.62941 464.06292,569.40134 C 460.16146,573.74708 457.4214,577.75473 457.4214,577.75473 C 457.4214,577.75473 474.76394,574.75276 486.26107,570.91105 C 509.23741,563.23361 526.70622,555.07364 540.58449,545.53567 C 544.91488,542.55957 548.60364,540.27031 548.78175,540.44842 C 549.38734,541.05401 541.85289,554.45194 537.23068,560.98879 C 527.1808,575.20158 512.309,592.44692 492.5,612.85847 C 486.17246,619.37848 479.49178,625.80227 479.49178,625.80227 C 479.49178,625.80227 469.01829,631.03113 459.66746,635.16127 C 444.33023,641.93553 396.09633,657.1117 391.47439,657.03475 C 390.86991,657.02469 403.23974,653.42296 407.81053,651.5402 z "
     id="path2207"
     sodipodi:nodetypes="cssscccsscccscccssscssssscssc" />
  <path
     style="fill:#000000"
     d="M 256,643.3408 C 231.54644,642.48719 208.42005,640.65931 205.12861,639.32 C 188.95033,632.73695 178.08641,627.3075 163.31044,618.42059 C 151.94548,611.58521 126.06897,593.97329 126.06897,593.24303 C 126.06897,593.09257 136.27609,599.50852 141.50243,602.20333 C 161.46655,612.49727 182.30862,618.76292 203.86727,620.95178 C 213.08638,621.88781 226.68435,620.03806 226.68435,620.03806 C 226.68435,620.03806 218.34842,612.47583 208.9965,604.05532 C 190.23037,587.15824 176.86887,573.57989 167.89311,562.28483 C 164.6519,558.20611 162,554.66698 162,554.42009 C 162,554.17321 164.5875,555.27597 167.75,556.87067 C 175.58553,560.82177 192.69407,566.52057 203,568.61234 C 212.17108,570.47377 228.30286,571.7412 245.79249,569.51227 L 238.71539,562.68462 C 235.22871,559.28308 229.67871,552.9 226.38206,548.5 C 218.80897,538.39227 201.83585,514.08753 202.46919,514.08753 C 202.73149,514.08753 206.47789,516.73679 209.67929,518.85953 C 219.45858,525.34386 233.04234,532.6799 242.31038,536.48226 C 245.84058,537.93057 252.35085,540.50492 252.35085,540.50492 C 252.35085,540.50492 258.72583,546.2304 263.81038,550.33113 C 279.8473,563.26502 292.61302,571.79421 304.82877,577.73682 L 314.4214,582.40336 L 310.18083,584.25255 C 299.1116,589.0795 275.37987,591.97418 246.32791,592.04101 L 228.5,592.08203 L 233,596.15127 C 238.81188,601.40681 253.81912,611.32749 266.5,618.29678 C 283.35017,627.55746 309.18521,637.45623 315.88274,637.45623 C 315.88274,637.45623 314.75714,638.72851 307.12985,640.43226 C 290.17932,643.07545 273.09793,643.99529 256,643.3408 z "
     id="path2205"
     sodipodi:nodetypes="cssssscsssssccsssscsccccccsccc" />
  <path
     style="fill:#000000"
     d="M 179.5,603.03896 C 163.54814,598.82101 138.56358,587.57059 108.5,571.06801 C 100.25,566.5394 92.43337,561.85899 91.129712,560.66709 C 86.540326,556.47114 68.063115,533.7719 62.248392,525.18641 C 59.012704,520.40888 55.356659,513.8 54.123848,510.5 L 51.882373,504.5 L 63.691186,516.0913 C 80.679175,532.76639 95.604794,543.35651 109.37733,548.50685 C 113.15986,549.92135 116.98683,551.03588 116.98683,551.03588 C 116.98683,551.03588 111.53904,536.62998 107.02033,526.5 C 100.42976,511.72535 90.309326,482.08153 87.560474,469.5 C 87.199977,467.85 86.649385,465.6 86.336938,464.5 C 86.02449,463.4 87.23426,464.49613 89.025316,466.93583 C 96.859191,477.60685 114.5542,492.91069 128.77485,501.31392 C 137.41183,506.41767 155.42246,512.94494 155.42246,512.94494 C 151.28344,501.6853 148.92179,492.19885 146.58013,481.5 C 144.90051,472.85819 140.54429,446.83354 140.54397,445.24771 C 140.54386,444.71359 143.61576,450.59476 146.81279,455.52888 C 152.66411,464.55947 167.38113,483.30616 173.41013,488.02033 C 173.41013,488.02033 176.36337,495.13144 180.42412,503.42351 C 190.85651,524.72648 200.68067,540.27112 210.40854,550.86744 L 213.5,554.23489 L 206,553.72299 C 192.99365,552.83526 170.91462,545.35237 146.25,533.47288 C 137.8625,529.43311 131.00752,526.66159 131.01671,527.31393 C 131.04382,529.23842 139.58563,544.59789 146.37116,554.92358 C 157.58592,571.98929 172.93252,589.81876 185.30192,600.15278 C 188.64173,602.94304 192.48175,606.44413 192.48175,606.44413 C 192.48175,606.44413 185.34307,604.58397 179.5,603.03896 z "
     id="path2203"
     sodipodi:nodetypes="cssscccsssssssccsscscccsssscc" />
  <path
     style="fill:#000000"
     d="M 530.39911,590.00448 C 552.34182,566.04763 568.26563,536.93717 572.38483,513.25 C 572.69567,511.4625 572.05958,510 572.05958,510 C 572.05958,510 565.8436,513.51562 559.33458,517.81248 C 538.70789,531.42899 523.94414,540.10198 508.52639,547.65985 C 500.29091,551.69693 493.21269,555 492.79702,555 C 492.38134,555 494.86459,551.50292 498.31535,547.22871 C 513.41067,528.53122 524.17047,505.45165 526.86842,485.98293 C 527.43393,481.90212 527.6931,478.35977 527.44437,478.11103 C 527.19563,477.86229 525.98139,478.58473 524.74606,479.71645 C 519.41403,484.60124 506.58835,490.28646 479.21861,499.89733 L 464.93721,504.91224 L 476.85034,493.20612 C 483.40256,486.76775 491.66878,477.77921 495.21972,473.23158 C 497.73684,470.00794 501.77177,464.32786 501.77177,464.32786 C 501.77177,464.32786 509.24887,459.39211 514.08798,455.83219 C 531.43414,443.07139 543.69212,432.32515 551.62569,422.9239 C 558.01977,415.34693 558.78936,414.95046 558.78936,414.95046 C 560.00726,418.09529 559.4844,440.4837 557.5356,451.5 C 555.37728,463.7007 550.20992,485.01001 547.41153,493.25 C 545.98739,497.44343 545.01413,500.68938 545.01413,500.68938 C 545.01413,500.68938 563.41974,487.72318 576,475.05917 C 590.82022,460.1403 598.51293,450.7324 607.25,436.84159 L 613,427.69983 L 612.99598,433.59992 C 612.98623,447.90271 606.47285,475.5993 594.8629,510.70644 L 587.75227,532.20817 L 579.71241,542.35409 C 570.48642,553.99684 544.2678,580.43681 532.49261,589.97254 L 517.6565,602.37611 L 530.39911,590.00448 z "
     id="path2201"
     sodipodi:nodetypes="cscssssssscccscsssssssccccccccc" />
  <path
     style="fill:#000000"
     d="M 84.899131,518.13447 C 73.859431,509.74051 57.592124,491.82195 39.838633,468.5 C 38.206533,466.35599 35.26991,462.59293 35.26991,462.59293 C 35.26991,462.59293 33.596102,457.0057 32.664697,453.95074 C 25.076682,429.06248 20.218143,405.22226 19.511779,380 L 19.477915,358.3939 L 22.397106,371.71165 C 27.480603,390.72432 36.3068,408.63219 45.626453,418.84274 L 50.790109,424.5 L 51.34407,421 C 51.648748,419.075 52.167197,411.425 52.496178,404 C 53.126574,389.77217 55.255713,371.2243 57.317388,362.00032 L 58.546634,356.50065 L 60.826703,364.34774 C 65.651212,380.95179 74.353619,396.16953 84.910374,406.46241 L 90,411.42482 L 90,407.27778 C 90,401.49132 92.319423,391.04525 97.534653,373.34371 C 100.35212,363.78068 103.3444,351.57179 103.3444,351.57179 C 103.3444,351.57179 104.43127,354.91219 107.39336,363.5 C 110.42021,372.27557 115.47784,386.475 118.79207,395 L 124.81794,410.5 C 124.81794,410.5 124.53338,419.18117 125.3268,432 C 126.47336,450.52441 129.49906,467.94517 132.75095,485.7888 C 132.75095,485.7888 122.75499,480.53077 115.22287,474.11335 C 103.04096,463.73429 92.940088,452.99453 73.202856,429.43557 L 69.905712,425.5 L 70.388319,439 C 71.231517,462.58688 78.677048,495.14276 87.476424,513.71842 C 89.894623,518.82329 91.7438,523 91.585706,523 C 91.427612,523 88.418653,520.81051 84.899131,518.13447 z "
     id="path2199"
     sodipodi:nodetypes="cscsccccccsccccccscsccscscccssc" />
  <path
     style="fill:#000000"
     d="M 618.18157,478.28041 C 624.10181,459.99227 627.5687,434.72695 626.5218,417.5 C 625.89422,407.17297 623.6847,394.19681 622.03372,391.1422 C 621.54328,390.23481 618.53528,394.21547 612.96589,403.1422 C 595.78582,430.67871 584.40373,446.67817 571.80029,461.00742 L 567.10058,466.35067 L 569.01571,460.19736 C 574.10514,443.84497 576.06569,415.27974 573.1473,400 C 571.67571,392.29526 568.11787,381 567.16258,381 C 566.79168,381 565.87078,382.39489 565.11614,384.09975 C 562.79875,389.33509 552.86407,400.78239 536.58952,416.9697 L 521.03646,432.43939 L 524.9289,423.41081 C 529.19208,413.52227 535.17341,394.92943 537.12483,385.5 C 537.52505,383.5661 538.45236,378.34581 538.45236,378.34581 C 538.45236,378.34581 542.42611,372.40528 544.35691,369.03093 C 555.58448,350.12453 561.27475,333.97925 569.20128,310.13861 C 569.20128,310.13861 571.06699,312.69439 572.39587,314.75 C 578.21857,323.75697 586.98088,353.73166 590.44686,376.5 C 591.36784,382.55 592.4532,388.85 592.85878,390.5 L 593.59619,393.5 L 596.4623,388.63195 C 608.37594,368.39678 621.16029,328.2783 622.71494,306.24874 C 623.27538,298.30727 623.4035,297.92249 624.67763,300.35425 C 627.52205,305.78302 632.99697,323.98088 635.40185,336 C 638.35481,350.75837 640.3447,364.3098 642.95273,387.42255 L 644.86227,404.34509 L 641.34063,418.35753 C 639.40372,426.06437 635.77614,438.24923 633.27933,445.43499 C 628.97702,457.81694 612.68604,494.41185 611.07163,496.08943 C 610.65857,496.51866 616.61825,483.10964 618.18157,478.28041 z "
     id="path2197"
     sodipodi:nodetypes="cssscccssscccscccsscccssscccssc" />
  <path
     style="fill:#000000"
     d="M 39.353545,389.48588 C 33.835845,377.23527 28.228649,356.78157 24.468607,335.18922 C 22.762613,325.39241 22.758007,324.39546 24.376208,315.18922 C 25.312911,309.86015 26.881983,302.35 27.863034,298.5 L 29.646762,291.5 L 30.29872,300.5 C 30.918474,309.05543 34.968372,322.46816 34.968372,322.46816 C 34.968372,322.46816 39.663429,314.85818 44.440196,305.93963 C 52.466225,290.9545 62.726552,274.38855 63.498569,275.16868 C 63.6789,275.35091 63.435092,277.525 62.956773,280 C 61.624706,286.89261 61.841969,300.99924 63.405911,309.16203 C 64.878441,316.84771 68.923367,325.91247 68.923367,325.91247 C 68.923367,325.91247 70.427813,323.32608 71.403436,321.28018 C 72.985351,317.96286 80.87832,307.44915 88.751394,298.17208 L 91.575661,294.84417 L 92.815912,304.67208 C 93.498049,310.07744 95.194918,319.57951 96.586732,325.78779 L 99.117301,337.07559 L 94.122923,348.78779 C 88.51732,361.93337 85.499961,370.91707 84.001164,378.92373 C 83.442756,381.90678 82.294584,385.55579 82.294584,385.55579 C 82.294584,385.55579 76.590444,376.61776 73.488681,368.54097 C 67.118848,351.95433 64.60214,338.66551 59.70761,324.7783 C 59.70761,324.7783 53.866653,337.46244 50.542399,348.42946 C 46.298288,362.43118 43.954768,374.62394 43.131631,386.98588 L 42.5,396.47177 L 39.353545,389.48588 z "
     id="path2195"
     sodipodi:nodetypes="cssccccsssscsccccccssscsccc" />
  <path
     style="fill:#000000"
     d="M 596.7514,342.60741 C 592.45594,319.25586 580.97462,294.8998 567.2011,279.92049 L 562.3249,274.6174 L 561.70322,280.5587 C 560.84474,288.76309 557.10079,301.33189 549.2099,322.5 L 542.5,340.5 L 542.26213,333.5 C 541.89487,322.69185 540.07856,307.50148 537.85632,296.65281 C 536.9091,292.02862 535.40414,285.73224 535.40414,285.73224 C 535.40414,285.73224 536.48247,276.91208 537.05196,268.15281 C 538.34308,248.2943 537.86827,233.22938 535.52893,219.82931 C 534.73668,215.29119 533.83453,209.93634 533.83453,209.93634 C 533.83453,209.93634 542.74584,215.72453 547.74647,220.33395 C 557.60655,229.42265 577.36523,254.29309 586.51137,269.12769 C 588.87843,272.96695 591.69332,275.9343 591.69332,275.9343 C 591.69332,275.9343 592.17928,269.9083 592.54244,264.44084 C 594.08983,241.14442 587.85649,199.82845 580.04499,181.60495 C 578.21017,177.32449 578.19273,177.03278 579.82382,177.90571 C 582.69919,179.44456 596.05575,193.8669 602.60065,202.5 C 610.99505,213.57269 623.00589,231.72011 633.70752,249.5 C 638.05435,256.7219 642.92232,264.62873 642.92232,264.62873 C 642.92232,264.62873 643.85541,270.20394 644.89483,275.5 C 648.63651,294.56469 650.04889,307.88614 650.51409,328.5 L 650.96543,361.27454 L 649.49301,339.53664 C 646.30015,320.10018 640.42545,301.60571 632.35018,285.56836 C 627.67955,276.29256 620.82537,265.92755 617.21757,262.68456 C 614.83417,260.54217 615.22089,258.86775 611.94822,285.5 C 608.80835,311.05154 603.89175,336.39638 599.77678,348.24312 L 598.47661,351.98623 L 596.7514,342.60741 z "
     id="path2193"
     sodipodi:nodetypes="cccccccscssssssssssscscccsssccc" />
  <path
     style="fill:#000000"
     d="M 289.9375,17.4375 C 285.78286,17.398736 247.50791,24.977259 234.5,28.875 C 227.35,31.017454 219.73344,33.083279 217.5625,33.46875 C 210.89878,34.651954 191.11056,34.147512 179,32.5 C 155.88415,29.355332 142.86781,30.791159 123.34375,38.625 C 93.575002,50.569423 58.874751,80.657278 45.625,106 C 35.511994,125.34309 27.440836,160.66071 28.15625,182.5 C 28.342697,188.19162 28.796434,193.14149 29.15625,193.5 C 29.690626,194.03243 100.28125,174.4375 100.28125,174.4375 C 100.28125,174.4375 100.1159,176.52012 94.3125,181.90625 C 80.00758,195.18263 61.26122,218.21332 49.65625,240 C 47.115365,244.77015 43.96875,251 43.96875,251 C 43.96875,251 40.51346,264.17379 38.96875,283.46875 C 38.396173,290.70536 38.624999,299.68749 38.625,299.6875 C 38.625,299.6875 40.954204,294.06848 43.625,289.34375 C 50.895265,276.48244 65.696233,258.18699 73.15625,252.875 L 76.3125,250.65625 L 75.65625,253.5625 C 72.111943,269.59643 70.01315,294.6778 71.6875,300.9375 L 72.34375,303.375 L 74.90625,299.9375 C 76.32092,298.04454 80.531394,293.32914 84.25,289.4375 L 91,282.34375 L 91,275.9375 C 91.012363,247.74272 100.72048,219.09819 119.09375,193.03125 C 123.58774,186.65544 124.4375,186.1875 124.4375,186.1875 C 124.4375,186.1875 129.35426,205.925 133.59375,226 C 137.83324,246.075 141.4474,262.65603 141.59375,262.84375 C 142.70146,264.26458 161.24049,253.26108 172.5,244.5 C 182.8495,236.44701 200.08077,218.49203 206.625,208.96875 C 209.45074,204.85668 216.18668,193.39947 221.5625,183.5 C 240.08934,149.38321 249.72688,138.01232 263.5,134.03125 C 273.48376,131.14549 288.98545,127.78125 291.1875,127.78125 C 269.62335,121.08005 246.1048,118.27179 224,118.1875 C 224,118.1875 232.40566,106.24975 241.0625,98.875 C 244.63094,95.835049 250.62476,91.156052 254.4375,88.5625 C 266.7202,80.961111 280.03024,74.582727 293.1875,69.46875 C 287.14855,67.051031 258.75494,66.619346 230.15625,67.875 C 214.5612,68.559717 200.06258,68.381266 200.06258,68.381266 C 200.06258,68.381266 208.37783,58.963147 215.5,53.0625 C 230.56691,40.579715 252.42319,28.48478 271.5,22.0625 C 276.45,20.396064 289.93749,17.4375 289.9375,17.4375 z M 140.25,67.84375 C 157.21994,67.843747 170.96875,81.623807 170.96875,98.59375 C 170.96875,115.5637 157.21994,129.34375 140.25,129.34375 C 123.28005,129.34374 109.5,115.56369 109.5,98.59375 C 109.5,81.62381 123.28006,67.84375 140.25,67.84375 z "
     id="path2191"
     sodipodi:nodetypes="cssssssscsscccscccccccccscssssssccsccssssccsssc" />
  <path
     style="fill:#000000"
     d="M 518.12263,240.39877 C 513.35868,231.09517 506.45359,220.14783 498.80988,209.78031 C 497.03517,207.37319 492.59478,201.53969 492.59478,201.53969 C 492.59478,201.53969 490.34243,193.89578 488.3815,188.78031 C 481.19506,170.03307 474.07424,155.6573 466.25702,144.11459 L 459.90081,134.72918 L 464.97909,135.40284 C 476.89741,136.98386 509.31215,151.37729 529.16268,163.90289 C 534.47715,167.2563 540.0482,170 540.0482,170 C 540.0482,170 536.26568,159.37566 531.67161,149.83333 C 522.07452,129.89929 506.27126,106.62914 493.09116,93.024025 C 489.34864,89.160811 486.6209,86 487.02952,86 C 489.5842,86 505.18621,92.09967 514.5,96.739698 C 528.91323,103.92021 538.39743,109.58446 562.03545,125.12931 C 571.39122,131.28185 581.28201,137.79157 581.28201,137.79157 C 581.28201,137.79157 584.77252,142.29899 587.715,146.27188 C 599.29152,161.90228 612.99925,185.10107 621.52996,203.4999 C 624.08004,208.99985 629.87552,221.99931 629.87552,221.99931 C 629.87552,221.99931 622.93806,209.10763 620.2416,204.9888 C 605.28362,182.14054 581.27939,158.91233 563.15734,149.75 C 560.16579,148.2375 555.7871,146.82765 555.7871,146.82765 C 555.7871,146.82765 557.05146,152.63997 560.63004,163.75 C 568.22159,187.31866 573.72075,207.61394 576.09126,220.81138 C 578.63943,234.9979 578.38716,236.70839 574.59934,230.92717 C 566.35256,218.34043 550.85598,202.73033 537.81797,193.87638 C 531.9169,189.86905 516.25377,182 514.17833,182 C 513.58527,182 513.96624,184.31843 515.08003,187.48738 C 517.67349,194.86623 519.73603,208.81365 521.43929,230.49022 C 522.21677,240.38484 522.7648,248.56853 522.65713,248.6762 C 522.54946,248.78387 520.50894,245.05903 518.12263,240.39877 z "
     id="path2189"
     sodipodi:nodetypes="cscscccszssssscsscsssssssssssc" />
  <path
     style="fill:#000000"
     d="M 462.5,172.35746 C 456.06789,166.63403 441.44991,156.23077 430,150.21053 C 425.46442,147.82577 418.99659,144.6742 418.99659,144.6742 C 418.99659,144.6742 411.84725,138.05491 407.5,132.82904 C 394.94605,117.7378 379.11033,107.00177 362.27489,96.939209 C 362.27489,96.939209 373.28591,93.791532 393.5,93.307183 C 409.50746,92.920331 416.16702,93.138549 442.5,95.575595 L 448.5,96.130878 L 441.20991,89.115756 C 423.63386,72.202634 390.76204,51.422565 371.31595,44.931967 C 364.59534,42.688805 364.54196,42.64308 367.5,41.66315 C 372.44437,40.02519 409.89106,40.469765 424.5,42.339865 C 453.84931,46.096891 463.54527,47.443475 473.07825,49.673722 C 487.40168,54.413253 514.10618,73.916456 528.5,85.533433 C 543.61903,97.735707 551.09947,104.88339 551.09947,104.88339 C 518.53531,80.196544 484.98962,69.284237 463.75,68.260992 C 457.8375,67.97615 452.31062,67.944136 452.31062,67.944136 C 452.31062,67.944136 458.33953,74.876421 464.86562,81.839627 C 476.69916,94.465759 486.92155,106.02464 494.63403,115.5 C 499.707,121.73253 511,138.03721 511,139.12897 C 511,139.57489 509.3125,138.7903 507.25,137.38544 C 496.6005,130.1316 473.24172,121.26468 457.61901,118.54567 C 448.0249,116.87589 429.37618,116.83227 429.37618,116.83227 C 429.37618,116.83227 431.15235,119.43322 432.17145,120.61635 C 437.05674,126.28796 448.75084,142.35206 457.9816,159.5 C 460.35012,163.9 463.39096,169.4125 464.73902,171.75 C 466.08708,174.0875 467.03478,175.98127 466.84502,175.95837 C 466.65526,175.93548 464.7,174.31507 462.5,172.35746 z "
     id="path2187"
     sodipodi:nodetypes="cscscscccssscscssssssssssssc" />
  <path
     style="fill:#000000"
     d="M 343.41505,124.96572 C 336.63158,124.72231 329.29371,124.21051 329.29371,124.21051 C 329.29371,124.21051 323.36921,121.64929 318.5,120.04445 C 295.89672,111.33678 274.87251,107.52429 257.33559,105.36677 C 257.33559,105.36677 266.80116,96.743091 285.5,87.506779 C 300.88819,79.905767 323.7225,70.805499 331.11811,69.326379 C 336.40355,68.269289 334.38896,66.992286 320.5,62.595826 C 299.92265,56.082198 272.03475,51.753922 244.8259,53.016853 C 239.17502,53.279145 236.10935,53.725889 236.10935,53.725889 C 244.0942,48.060948 252.7772,43.941543 261.6194,39.945313 C 273.0466,34.71155 284.9278,30.586953 313.44837,21.952727 L 336.39674,15.005411 L 349.94837,16.027947 C 366.24442,17.257562 380.68906,19.308692 395.5,22.496247 C 407.65286,25.11174 430.687,31.955477 430.687,31.955477 C 428.762,31.693306 406.3,27.760721 397.5,27.39854 C 379.11505,26.641872 365.31712,27.838927 350.18226,31.503643 C 338.92686,34.228996 326.10912,39.551824 327.56924,40.894155 C 328.08116,41.364772 331.65,42.980962 335.5,44.485688 C 339.35,45.990414 344.3,48.021855 346.5,49 C 348.7,49.978145 353.65,52.012539 357.5,53.520874 C 368.67844,57.90031 395.86842,71.510809 403.5,76.547109 C 407.35,79.087836 409.65544,80.89635 408.62319,80.566029 C 404.31513,79.187442 385.78369,78.825839 375.68393,79.923288 C 357.78611,81.868082 336.07786,88.419377 329,94.011947 L 326.5,95.987323 L 329,96.66497 C 335.08306,98.313839 349.80196,106.96557 365.5,118.11958 C 374.85,124.76308 386.12113,132.4289 386.64363,132.92427 C 374.06064,128.66166 357.60052,126.39439 343.41505,124.96572 z "
     id="path2161"
     sodipodi:nodetypes="ccccsssscccccscssssssssscccscc" />
  <path
     sodipodi:type="arc"
     style="opacity:1;fill:#000000;fill-opacity:1;stroke:none;stroke-width:2;stroke-linejoin:round;stroke-miterlimit:4;stroke-dasharray:none;stroke-dashoffset:0;stroke-opacity:1"
     id="path2216"
     sodipodi:cx="141.29504"
     sodipodi:cy="99.194946"
     sodipodi:rx="8.7836142"
     sodipodi:ry="29.68256"
     d="M 150.07866 99.194946 A 8.7836142 29.68256 0 1 1  132.51143,99.194946 A 8.7836142 29.68256 0 1 1  150.07866 99.194946 z"
     transform="matrix(0.7071068,-0.7071068,0.7071068,0.7071068,-29.733532,128.207)" />
</svg>
